<?xml version="1.0" standalone="no"?>
<!DOCTYPE svg PUBLIC "-//W3C//DTD SVG 20010904//EN"
 "http://www.w3.org/TR/2001/REC-SVG-20010904/DTD/svg10.dtd">
<svg version="1.0" xmlns="http://www.w3.org/2000/svg"
 width="64.000000pt" height="64.000000pt" viewBox="0 0 64.000000 64.000000"
 preserveAspectRatio="xMidYMid meet">

<g transform="translate(0.000000,64.000000) scale(0.100000,-0.100000)"
fill="#000000" stroke="none">
<path d="M446 538 l-78 -52 5 -43 c4 -34 0 -46 -17 -62 -12 -12 -26 -21 -31
-21 -6 0 -60 50 -121 111 -107 107 -112 111 -124 89 -15 -28 -15 -102 0 -132
7 -12 43 -55 82 -94 l69 -71 -75 -67 c-80 -72 -92 -98 -58 -129 34 -31 55 -20
140 70 l82 88 84 -87 c63 -66 90 -88 109 -88 26 0 57 32 57 57 0 7 -42 53 -92
102 l-93 89 23 25 c19 21 30 24 66 20 l42 -5 52 79 c29 44 52 84 52 89 0 13
-73 84 -85 84 -6 0 -45 -24 -89 -52z m104 29 c0 -7 -20 -33 -45 -57 -25 -24
-45 -49 -45 -54 0 -6 25 14 55 44 30 29 58 51 62 47 4 -4 -17 -32 -47 -62 -30
-30 -52 -57 -49 -60 3 -2 27 18 54 45 47 48 75 62 75 40 0 -6 -23 -45 -51 -87
l-51 -75 -41 6 c-34 6 -44 3 -67 -19 -26 -25 -27 -25 -43 -7 -16 17 -15 20 8
42 22 21 25 30 19 66 l-6 42 74 50 c75 52 98 61 98 39z m-321 -131 l124 -125
-45 -22 c-47 -23 -82 -21 -72 5 4 9 -1 13 -13 13 -12 -1 -17 4 -16 16 0 11 -4
16 -12 13 -16 -6 -35 13 -29 29 3 8 -2 12 -13 12 -12 -1 -17 4 -16 16 0 11 -4
16 -12 13 -17 -6 -35 13 -28 30 3 8 0 14 -6 14 -6 0 -11 20 -11 48 0 46 5 62
19 62 4 0 62 -56 130 -124z m235 -230 c97 -92 99 -95 84 -118 -30 -45 -49 -35
-153 77 -54 58 -96 107 -94 109 11 9 45 25 54 26 6 0 55 -43 109 -94z m-166
41 c9 -10 -7 -33 -69 -100 -79 -85 -103 -99 -127 -75 -22 22 -12 43 45 100 80
79 128 103 151 75z"/>
<path d="M415 200 c3 -5 11 -10 16 -10 6 0 7 5 4 10 -3 6 -11 10 -16 10 -6 0
-7 -4 -4 -10z"/>
<path d="M460 164 c0 -13 58 -69 65 -63 2 3 -11 21 -30 39 -19 19 -35 29 -35
24z"/>
</g>
</svg>
